<mxfile host="app.diagrams.net" modified="2020-11-28T12:46:12.983Z" agent="5.0 (Macintosh; Intel Mac OS X 10_15_5) AppleWebKit/537.36 (KHTML, like Gecko) Chrome/86.0.4240.193 Safari/537.36" etag="ZTWQj3y2I_LQzHEx_UZB" version="13.10.4" type="github">
  <diagram id="JiYCTvw5QqhPHcAvZPTo" name="Page-1">
    <mxGraphModel dx="946" dy="570" grid="1" gridSize="10" guides="1" tooltips="1" connect="1" arrows="1" fold="1" page="1" pageScale="1" pageWidth="827" pageHeight="1169" math="0" shadow="0">
      <root>
        <mxCell id="0" />
        <mxCell id="1" parent="0" />
        <mxCell id="KhbviZeAXucW9SMGxdH4-1" value="&lt;font style=&quot;font-size: 32px&quot;&gt;RunTime Complexity&lt;/font&gt;" style="text;html=1;strokeColor=none;fillColor=none;align=center;verticalAlign=middle;whiteSpace=wrap;rounded=0;" vertex="1" parent="1">
          <mxGeometry x="140" y="100" width="520" height="110" as="geometry" />
        </mxCell>
        <mxCell id="KhbviZeAXucW9SMGxdH4-2" value="&lt;font style=&quot;font-size: 24px&quot;&gt;Describe the Performance of an algorithm&lt;/font&gt;" style="text;html=1;strokeColor=none;fillColor=none;align=center;verticalAlign=middle;whiteSpace=wrap;rounded=0;" vertex="1" parent="1">
          <mxGeometry x="154" y="220" width="520" height="110" as="geometry" />
        </mxCell>
        <mxCell id="KhbviZeAXucW9SMGxdH4-3" value="&lt;font style=&quot;font-size: 20px&quot;&gt;Simply to say that how much computing power you need to process&lt;br&gt;your algorithm.&lt;br&gt;&lt;/font&gt;" style="text;html=1;strokeColor=none;fillColor=none;align=center;verticalAlign=middle;whiteSpace=wrap;rounded=0;" vertex="1" parent="1">
          <mxGeometry x="90" y="360" width="660" height="110" as="geometry" />
        </mxCell>
      </root>
    </mxGraphModel>
  </diagram>
</mxfile>
